# File created by Blade
# Date/Time:  Tue Sep 30 19:36:50 2014
#---------------------------------------------------------
:version 1.10
:name HOM
:units
  mass 1.0
  length 1.000000
  angle deg
:documentation
     Acclaim Skeleton File
:root
   axis xyz
   order TX TY TZ RX RY RZ
   position 0.000000 0.000000 0.000000
   orientation 0 0 0
:bonedata
   begin
      id 1
      name Spine_dum
      direction 0.000000 1.000000 0.000000
      length 3.241213
      axis 0.0 0.0 0.0 xyz
   end
   begin
      id 2
      name LeftUpLeg_dum
      direction 1.000000 0.000000 0.000000
      length 3.434019
      axis 0.0 0.0 0.0 xyz
   end
   begin
      id 3
      name RightUpLeg_dum
      direction -1.000000 0.000000 0.000000
      length 3.434019
      axis 0.0 0.0 0.0 xyz
   end
   begin
      id 4
      name Spine
      direction 0.000000 1.000000 0.000000
      length 0.000000
      axis 0.0 0.0 0.0 xyz
      dof rx ry rz
   end
   begin
      id 5
      name Spine_dum1
      direction 0.000000 1.000000 0.000000
      length 18.382958
      axis 0.0 0.0 0.0 xyz
   end
   begin
      id 6
      name Spine_dum2
      direction 0.000000 1.000000 0.000000
      length 12.828261
      axis 0.0 0.0 0.0 xyz
   end
   begin
      id 7
      name Spine_dum3
      direction 0.000000 1.000000 0.000000
      length 12.828261
      axis 0.0 0.0 0.0 xyz
   end
   begin
      id 8
      name Head
      direction 0.000000 1.000000 0.000000
      length 4.527550
      axis 0.0 0.0 0.0 xyz
      dof rx ry rz
   end
   begin
      id 9
      name LeftShoulder
      direction 1.000000 0.000000 0.000000
      length 7.748055
      axis 0.0 0.0 -90.0 xyz
      dof rx ry rz
   end
   begin
      id 10
      name LeftArm
      direction 1.000000 0.000000 0.000000
      length 10.635614
      axis 0.0 0.0 -90.0 xyz
      dof rx ry rz
   end
   begin
      id 11
      name LeftForeArm
      direction 1.000000 0.000000 0.000000
      length 8.346755
      axis 0.0 0.0 -90.0 xyz
      dof ry rz rx
   end
   begin
      id 12
      name LeftHand
      direction 0.000000 0.000000 0.000000
      length 0.000000
      axis 0.0 0.0 -90.0 xyz
      dof rx ry rz
   end
   begin
      id 13
      name LeftHand_dum1
      direction 0.000000 0.000000 0.000000
      length 0.000000
      axis 0.0 0.0 -90.0 xyz
   end
   begin
      id 14
      name LeftHand_dum2
      direction 1.000000 0.000000 0.000000
      length 3.937000
      axis 0.0 0.0 -90.0 xyz
   end
   begin
      id 15
      name LeftHandThumb1
      direction 0.000000 0.000000 1.000000
      length 3.937000
      axis 0.0 0.0 -90.0 xyz
      dof rx rz ry
   end
   begin
      id 16
      name RightShoulder
      direction -1.000000 0.000000 0.000000
      length 7.748055
      axis 0.0 0.0 90.0 xyz
      dof rx ry rz
   end
   begin
      id 17
      name RightArm
      direction -1.000000 0.000000 0.000000
      length 10.635614
      axis 0.0 0.0 90.0 xyz
      dof rx ry rz
   end
   begin
      id 18
      name RightForeArm
      direction -1.000000 0.000000 0.000000
      length 8.346755
      axis 0.0 0.0 90.0 xyz
      dof ry rz rx
   end
   begin
      id 19
      name RightHand
      direction 0.000000 0.000000 0.000000
      length 0.000000
      axis 0.0 0.0 90.0 xyz
      dof rx ry rz
   end
   begin
      id 20
      name RightHand_dum1
      direction 0.000000 0.000000 0.000000
      length 0.000000
      axis 0.0 0.0 90.0 xyz
   end
   begin
      id 21
      name RightHand_dum2
      direction -1.000000 0.000000 0.000000
      length 3.937000
      axis 0.0 0.0 90.0 xyz
   end
   begin
      id 22
      name RightHandThumb1
      direction 0.000000 0.000000 1.000000
      length 3.937000
      axis 0.0 0.0 90.0 xyz
      dof rx rz ry
   end
   begin
      id 23
      name LeftUpLeg
      direction 0.000000 -1.000000 0.000000
      length 15.713025
      axis 0.0 0.0 0.0 xyz
      dof rx ry rz
   end
   begin
      id 24
      name LeftLeg
      direction 0.000000 -1.000000 0.000000
      length 14.435119
      axis 0.0 0.0 0.0 xyz
      dof rx ry rz
   end
   begin
      id 25
      name LeftFoot
      direction 0.000000 -0.258819 0.965926
      length 4.938895
      axis 15.0 0.0 0.0 xyz
      dof rx ry rz
   end
   begin
      id 26
      name LeftToeBase
      direction 0.000000 0.000000 1.000000
      length 2.952750
      axis 0.0 0.0 0.0 xyz
      dof rx ry rz
   end
   begin
      id 27
      name RightUpLeg
      direction 0.000000 -1.000000 0.000000
      length 15.713025
      axis 0.0 0.0 0.0 xyz
      dof rx ry rz
   end
   begin
      id 28
      name RightLeg
      direction 0.000000 -1.000000 0.000000
      length 14.435119
      axis 0.0 0.0 0.0 xyz
      dof rx ry rz
   end
   begin
      id 29
      name RightFoot
      direction 0.000000 -0.258819 0.965926
      length 4.938895
      axis 15.0 0.0 0.0 xyz
      dof rx ry rz
   end
   begin
      id 30
      name RightToeBase
      direction 0.000000 0.000000 1.000000
      length 2.952750
      axis 0.0 0.0 0.0 xyz
      dof rx ry rz
   end
:hierarchy
   begin
      root Spine_dum LeftUpLeg_dum RightUpLeg_dum
      Spine_dum Spine
      LeftUpLeg_dum LeftUpLeg
      RightUpLeg_dum RightUpLeg
      Spine Spine_dum1 Spine_dum2 Spine_dum3
      Spine_dum1 Head
      Spine_dum2 LeftShoulder
      Spine_dum3 RightShoulder
      LeftShoulder LeftArm
      LeftArm LeftForeArm
      LeftForeArm LeftHand
      LeftHand LeftHand_dum1 LeftHand_dum2
      LeftHand_dum1 LeftHandThumb1
      RightShoulder RightArm
      RightArm RightForeArm
      RightForeArm RightHand
      RightHand RightHand_dum1 RightHand_dum2
      RightHand_dum1 RightHandThumb1
      LeftUpLeg LeftLeg
      LeftLeg LeftFoot
      LeftFoot LeftToeBase
      RightUpLeg RightLeg
      RightLeg RightFoot
      RightFoot RightToeBase
   end

# File created by Blade
# Date/Time:  Tue Sep 23 19:06:47 2014
# Frame Rate: 120.000 fps
#------------------------------------------------------
:FULLY-SPECIFIED
:DEGREES
418
root 2.240627 34.517860 -5.477151 40.763263 -0.215008 -45.360867
Spine -42.211178 29.318321 12.501264
Head -6.973123 -11.745578 21.731489
LeftShoulder -19.077604 14.113427 40.951510
LeftArm 83.715836 -81.355981 -32.530603
LeftForeArm 96.270090 0.000000 16.254422
LeftHand -15.292298 -0.000000 61.933069
LeftHandThumb1 -26.253704 0.000000 33.147579
RightShoulder -10.062254 -4.091284 -19.392756
RightArm 114.224470 39.953430 149.279664
RightForeArm 44.917845 -0.000000 66.643999
RightHand -1.351072 -0.000000 23.031912
RightHandThumb1 -24.326973 -0.000000 -32.862282
LeftUpLeg -39.307495 26.215335 33.081341
LeftLeg 20.307462 -0.000000 -0.000000
LeftFoot -9.625506 27.589460 6.054199
LeftToeBase -0.756120 -0.000000 0.000000
RightUpLeg -182.935318 -36.896579 55.290565
RightLeg -4.710683 -0.000000 0.000000
RightFoot 30.757350 -20.295986 11.946717
RightToeBase 35.238095 -0.000000 -0.000000
419
root 2.239892 34.520229 -5.473492 40.875073 -0.331276 -45.398665
Spine -42.237004 29.300654 12.509614
Head -6.931773 -11.574472 21.760826
LeftShoulder -19.070373 14.109003 40.969137
LeftArm 82.914757 -81.232977 -31.650388
LeftForeArm 96.251660 -0.000000 16.317761
LeftHand -15.235014 -0.000000 61.833445
LeftHandThumb1 -26.253704 0.000000 33.147579
RightShoulder -10.115681 -4.221417 -19.388079
RightArm 114.274298 39.785197 149.338302
RightForeArm 44.899321 -0.000000 66.596699
RightHand -1.336067 -0.000000 23.065465
RightHandThumb1 -24.326973 -0.000000 -32.862282
LeftUpLeg -39.283947 26.283691 33.083571
LeftLeg 20.292587 -0.000000 -0.000000
LeftFoot -9.617989 27.658261 6.059594
LeftToeBase -0.717549 -0.000000 0.000000
RightUpLeg -182.953152 -37.051134 55.362138
RightLeg -4.774557 -0.000000 0.000000
RightFoot 30.730783 -20.332513 11.948666
RightToeBase 35.103232 -0.000000 -0.000000
420
root 2.238833 34.520298 -5.476462 41.163921 -0.467770 -45.474527
Spine -42.440592 29.384482 12.432703
Head -6.950668 -11.464559 21.729768
LeftShoulder -19.160811 13.048259 41.538404
LeftArm 82.331206 -79.919258 -31.437712
LeftForeArm 96.466608 0.000000 16.741500
LeftHand -14.851561 0.000000 61.564497
LeftHandThumb1 -26.253704 0.000000 33.147579
RightShoulder -10.228589 -4.286063 -19.462427
RightArm 114.193117 39.657755 149.377283
RightForeArm 44.867314 -0.000000 66.569861
RightHand -1.295106 -0.000000 23.142427
RightHandThumb1 -24.326973 -0.000000 -32.862282
LeftUpLeg -39.424434 26.489102 33.035359
LeftLeg 20.304145 -0.000000 -0.000000
LeftFoot -9.617349 27.730462 6.108883
LeftToeBase -0.702353 -0.000000 0.000000
RightUpLeg -183.022976 -37.013291 55.462201
RightLeg -4.852945 -0.000000 0.000000
RightFoot 30.683135 -20.449177 12.003765
RightToeBase 34.960566 -0.000000 -0.000000
421
root 2.240844 34.522084 -5.474291 41.346152 -0.653404 -45.485628
Spine -42.555027 29.389114 12.318924
Head -6.885129 -11.317196 21.854405
LeftShoulder -19.212545 12.938129 41.591116
LeftArm 81.797221 -79.638996 -30.657202
LeftForeArm 96.618196 -0.000000 16.568112
LeftHand -14.969823 0.000000 61.587096
LeftHandThumb1 -26.253704 0.000000 33.147579
RightShoulder -10.254675 -4.394931 -19.414155
RightArm 114.194539 39.592216 149.364385
RightForeArm 44.998502 0.000000 66.499940
RightHand -1.277659 -0.000000 23.266855
RightHandThumb1 -24.326973 -0.000000 -32.862282
LeftUpLeg -39.431171 26.629386 32.928864
LeftLeg 20.241485 -0.000000 -0.000000
LeftFoot -9.556965 27.804765 6.196502
LeftToeBase -0.679693 -0.000000 0.000000
RightUpLeg -183.039179 -37.039919 55.454505
RightLeg -4.911182 -0.000000 0.000000
RightFoot 30.608807 -20.557897 12.143640
RightToeBase 35.041927 -0.000000 -0.000000
422
root 2.243056 34.522933 -5.473455 41.565198 -0.872064 -45.510913
Spine -42.687282 29.415691 12.195302
Head -6.831403 -11.183376 21.990135
LeftShoulder -19.186361 13.139893 41.511185
LeftArm 81.191611 -79.785512 -29.796703
LeftForeArm 96.647117 -0.000000 16.434427
LeftHand -14.880249 0.000000 61.544853
LeftHandThumb1 -26.253704 0.000000 33.147579
RightShoulder -10.269332 -4.480003 -19.378142
RightArm 114.123924 39.575226 149.282045
RightForeArm 45.120162 0.000000 66.444032
RightHand -1.183480 0.000000 23.205345
RightHandThumb1 -24.326973 -0.000000 -32.862282
LeftUpLeg -39.444085 26.806405 32.813702
LeftLeg 20.176122 -0.000000 -0.000000
LeftFoot -9.486863 27.894385 6.331314
LeftToeBase -0.690857 -0.000000 0.000000
RightUpLeg -183.023053 -36.980176 55.408032
RightLeg -4.983862 -0.000000 0.000000
RightFoot 30.538664 -20.681708 12.258350
RightToeBase 35.094781 -0.000000 -0.000000
423
root 2.244990 34.523825 -5.475386 41.821475 -1.087027 -45.545222
Spine -42.844326 29.435440 12.086398
Head -6.769865 -11.043340 22.096947
LeftShoulder -19.142200 13.262281 41.488324
LeftArm 80.065286 -79.848812 -28.452052
LeftForeArm 96.675283 0.000000 16.283299
LeftHand -14.953809 0.000000 61.522952
LeftHandThumb1 -26.253704 0.000000 33.147579
RightShoulder -10.236387 -4.553305 -19.369797
RightArm 114.065681 39.555104 149.253817
RightForeArm 45.179887 -0.000000 66.431821
RightHand -1.146576 -0.000000 23.046217
RightHandThumb1 -24.326973 -0.000000 -32.862282
LeftUpLeg -39.497149 26.979567 32.704305
LeftLeg 20.120318 -0.000000 -0.000000
LeftFoot -9.382477 28.014263 6.493323
LeftToeBase -0.682259 -0.000000 0.000000
RightUpLeg -183.019730 -36.859473 55.373690
RightLeg -5.042747 -0.000000 0.000000
RightFoot 30.542376 -20.733075 12.302755
RightToeBase 35.001569 -0.000000 -0.000000
424
root 2.248035 34.525977 -5.477903 42.094048 -1.349294 -45.629605
Spine -43.001319 29.513593 11.976825
Head -6.725443 -10.888447 22.238353
LeftShoulder -19.151509 13.239323 41.569373
LeftArm 80.052493 -79.711585 -28.344695
LeftForeArm 96.687299 -0.000000 16.266026
LeftHand -14.890567 0.000000 61.453533
LeftHandThumb1 -26.253704 0.000000 33.147579
RightShoulder -10.225106 -4.638745 -19.359750
RightArm 113.991234 39.547141 149.265063
RightForeArm 45.358382 -0.000000 66.371284
RightHand -1.118169 0.000000 23.159252
RightHandThumb1 -24.326973 -0.000000 -32.862282
LeftUpLeg -39.514495 27.211056 32.618555
LeftLeg 20.066282 -0.000000 -0.000000
LeftFoot -9.312370 28.152361 6.619372
LeftToeBase -0.658351 -0.000000 0.000000
RightUpLeg -182.926536 -36.727018 55.311702
RightLeg -5.140594 -0.000000 0.000000
RightFoot 30.500438 -20.834235 12.412353
RightToeBase 34.983949 -0.000000 -0.000000
